<svg width="882" height="715" viewBox="0 0 882 715" fill="none" xmlns="http://www.w3.org/2000/svg">
<path fill-rule="evenodd" clip-rule="evenodd" d="M195 800.613C239.735 800.613 416.832 765.81 328.284 765.81C239.735 765.81 230.774 653.434 195 638.613C159.226 623.793 114 674.878 114 719.613C114 764.348 150.265 800.613 195 800.613Z" fill="#AB72F0" fill-opacity="0.16"/>
<path fill-rule="evenodd" clip-rule="evenodd" d="M768 228C830.96 228 882 176.96 882 114C882 51.0395 830.96 0 768 0C705.04 0 654 51.0395 654 114C654 176.96 705.04 228 768 228Z" fill="#FF8F2B" fill-opacity="0.16"/>
<path fill-rule="evenodd" clip-rule="evenodd" d="M87.1394 318.073C141.519 291.832 50.4961 239.316 78.6996 198.539C106.903 157.761 277.627 201.698 258.067 100.598C238.507 -0.502895 74.2734 81.3447 37.4424 173.346C0.611469 265.348 32.76 344.314 87.1394 318.073Z" fill="#FF8F2B" fill-opacity="0.16"/>
</svg>
