<svg width="962" height="275" viewBox="0 0 962 275" fill="none" xmlns="http://www.w3.org/2000/svg">
<path d="M126.046 29.9998L122.598 51.4231L142.627 57.1039" stroke="#1FC4CB" stroke-width="4.7072" stroke-linecap="round" stroke-linejoin="round"/>
<path d="M124.006 237L130.856 257.59L112 266.418" stroke="#FEC673" stroke-width="4.7072" stroke-linecap="round" stroke-linejoin="round"/>
<path fill-rule="evenodd" clip-rule="evenodd" d="M227.092 128.311C228.266 127.997 229.46 128.642 229.757 129.753L232.96 141.707L244.915 138.504C246.026 138.206 247.182 138.917 247.496 140.091C247.811 141.265 247.165 142.458 246.054 142.756L234.1 145.959L237.303 157.914C237.601 159.025 236.89 160.181 235.716 160.496C234.542 160.81 233.348 160.165 233.051 159.054L229.847 147.099L217.893 150.302C216.782 150.6 215.626 149.889 215.312 148.715C214.997 147.54 215.643 146.347 216.754 146.049L228.708 142.846L225.505 130.892C225.207 129.782 225.918 128.626 227.092 128.311Z" fill="#FE6940"/>
<path fill-rule="evenodd" clip-rule="evenodd" d="M802.221 69.9257L809.987 88.1767L801.628 102.655L783.728 101.957L774.173 86.8036L782.532 72.3253L802.221 69.9257ZM785.175 76.2014L779.068 86.7792L786.075 97.8917L799.202 98.4035L805.309 87.8257L799.614 74.4416L785.175 76.2014Z" fill="#FEC673"/>
<path fill-rule="evenodd" clip-rule="evenodd" d="M902.761 164.374C902.772 163.643 903.168 162.97 903.802 162.604L929.026 148.041C929.661 147.675 930.44 147.669 931.08 148.025C931.719 148.381 932.123 149.047 932.145 149.778L933.041 180.458C933.064 181.222 932.664 181.938 932.001 182.32C931.338 182.703 930.519 182.691 929.868 182.29L903.747 166.173C903.124 165.789 902.75 165.106 902.761 164.374ZM908.897 164.462L928.77 176.724L928.088 153.382L908.897 164.462Z" fill="#1FC4CB"/>
<path fill-rule="evenodd" clip-rule="evenodd" d="M766 232C772.627 232 778 226.627 778 220C778 213.373 772.627 208 766 208C759.373 208 754 213.373 754 220C754 226.627 759.373 232 766 232ZM766 236C774.837 236 782 228.837 782 220C782 211.163 774.837 204 766 204C757.163 204 750 211.163 750 220C750 228.837 757.163 236 766 236Z" fill="#1FC4CB"/>
<path fill-rule="evenodd" clip-rule="evenodd" d="M9.62212 111.385C10.5883 111.091 11.6098 111.636 11.9036 112.602L14.0315 119.6L21.9042 117.206L19.7762 110.208C19.4824 109.242 20.0275 108.221 20.9937 107.927C21.9599 107.633 22.9814 108.178 23.2752 109.144L25.4031 116.142L31.5263 114.28C32.4925 113.986 33.5139 114.531 33.8077 115.498C34.1015 116.464 33.5565 117.485 32.5902 117.779L26.4671 119.641L28.861 127.514L34.9842 125.652C35.9504 125.358 36.9718 125.903 37.2656 126.869C37.5595 127.835 37.0144 128.857 36.0482 129.151L29.925 131.013L31.7869 137.136C32.0808 138.102 31.5357 139.123 30.5695 139.417C29.6032 139.711 28.5818 139.166 28.288 138.2L26.426 132.077L18.5534 134.471L20.4154 140.594C20.7092 141.56 20.1641 142.581 19.1979 142.875C18.2317 143.169 17.2102 142.624 16.9164 141.658L15.0545 135.535L8.93129 137.396C7.96508 137.69 6.94363 137.145 6.64983 136.179C6.35602 135.213 6.90111 134.191 7.86731 133.898L13.9905 132.036L11.5965 124.163L5.47338 126.025C4.50717 126.319 3.48572 125.774 3.19192 124.807C2.89811 123.841 3.4432 122.82 4.40941 122.526L10.5326 120.664L8.40463 113.666C8.11082 112.7 8.65591 111.678 9.62212 111.385ZM15.0955 123.099L17.4894 130.972L25.3621 128.578L22.9681 120.705L15.0955 123.099Z" fill="#1FC4CB"/>
<path fill-rule="evenodd" clip-rule="evenodd" d="M936.625 17.6208C937.895 21.2751 935.961 25.2663 932.307 26.5356C928.653 27.8048 924.662 25.8714 923.392 22.2171C922.123 18.5629 924.056 14.5716 927.711 13.3024C931.365 12.0331 935.356 13.9666 936.625 17.6208ZM936.439 10.9845C933.629 8.966 929.914 8.30004 926.398 9.52145C920.655 11.5159 917.617 17.7879 919.611 23.5303C921.606 29.2727 927.878 32.311 933.62 30.3165C937.137 29.0951 939.639 26.2696 940.593 22.9439C943.403 24.9624 947.118 25.6284 950.634 24.407C956.377 22.4125 959.415 16.1405 957.421 10.3981C955.426 4.6557 949.154 1.61743 943.412 3.61194C939.895 4.83334 937.393 7.65886 936.439 10.9845ZM940.406 16.3076C941.676 19.9618 945.667 21.8953 949.321 20.6261C952.975 19.3568 954.909 15.3656 953.64 11.7113C952.37 8.05706 948.379 6.12362 944.725 7.39285C941.071 8.66208 939.137 12.6533 940.406 16.3076Z" fill="#FE6940"/>
</svg>
