<svg width="65" height="44" viewBox="0 0 65 44" fill="none" xmlns="http://www.w3.org/2000/svg">
<path d="M86 0L86 44L-2.22928e-06 44L-1.67196e-06 33C-7.48562e-07 14.7746 14.7746 -2.68604e-06 33 -1.99872e-06L86 0Z" fill="#6501E5"/>
<path opacity="0.6" d="M108 0L108 44L22 44L22 33C22 14.7746 36.7746 -2.68604e-06 55 -1.99872e-06L108 0Z" fill="#8729FF"/>
<path d="M41.448 31.416L33.688 27.992V26.872L41.448 23V24.872L36.104 27.352L41.448 29.544V31.416ZM46.4849 29.544L51.8289 27.352L46.4849 24.872V23L54.2449 26.872V27.992L46.4849 31.416V29.544Z" fill="white"/>
</svg>
