<svg width="1355" height="764" viewBox="0 0 1355 764" fill="none" xmlns="http://www.w3.org/2000/svg">
<path fill-rule="evenodd" clip-rule="evenodd" d="M174 800.613C218.735 800.613 395.832 765.81 307.284 765.81C218.735 765.81 209.774 653.434 174 638.613C138.226 623.793 93 674.878 93 719.613C93 764.348 129.265 800.613 174 800.613Z" fill="#AB72F0" fill-opacity="0.16"/>
<path fill-rule="evenodd" clip-rule="evenodd" d="M838.101 1052.93C751.095 989.715 674.225 923.558 742.013 835.214C809.801 746.871 997.96 849.87 1068.24 711.351C1138.53 572.832 1392.67 774.678 1157.51 1075.77C922.357 1376.87 925.107 1116.14 838.101 1052.93Z" fill="#AB72F0" fill-opacity="0.16"/>
<path fill-rule="evenodd" clip-rule="evenodd" d="M1151 228C1213.96 228 1265 176.96 1265 114C1265 51.0395 1213.96 0 1151 0C1088.04 0 1037 51.0395 1037 114C1037 176.96 1088.04 228 1151 228Z" fill="#FF8F2B" fill-opacity="0.16"/>
<path fill-rule="evenodd" clip-rule="evenodd" d="M87.1394 350.073C141.519 323.832 50.4961 271.316 78.6996 230.539C106.903 189.761 277.627 233.698 258.067 132.598C238.507 31.4971 74.2734 113.345 37.4424 205.346C0.611469 297.348 32.76 376.314 87.1394 350.073Z" fill="#FF8F2B" fill-opacity="0.16"/>
</svg>
