<svg width="160" height="70" viewBox="0 0 160 70" fill="none" xmlns="http://www.w3.org/2000/svg">
<path opacity="0.1" d="M157.608 -53.004C160.864 -43.6712 158.505 -34.6986 158.09 -24.8228C157.338 -6.97778 170.386 18.235 154.284 25.9642C138.384 33.5965 127.795 6.86822 113.453 -3.39667C102.922 -10.9336 88.2444 -12.8031 83.3603 -24.7967C77.1418 -40.0672 76.3103 -58.1457 85.6148 -71.7577C96.2298 -87.287 114.639 -101.927 132.842 -97.1857C150.031 -92.7081 151.756 -69.7753 157.608 -53.004Z" fill="#0556F3"/>
<path opacity="0.1" d="M18.8039 -56.819C33.997 -49.4855 41.9786 -35.81 53.3955 -23.3897C74.0253 -0.946808 120.2 13.7351 110.095 42.4956C100.117 70.8957 55.0811 51.4174 25.3841 56.3381C3.57924 59.9511 -16.3911 75.409 -36.7599 66.8289C-62.6939 55.9045 -85.5154 35.0898 -90.714 7.43315C-96.6448 -24.1191 -92.0969 -64.0047 -64.406 -80.2505C-38.2574 -95.5914 -8.49847 -69.9974 18.8039 -56.819Z" fill="#0556F3"/>
</svg>
