<svg width="160" height="79" viewBox="0 0 160 79" fill="none" xmlns="http://www.w3.org/2000/svg">
<path opacity="0.1" d="M216.213 -82.8933C243.618 -69.8944 264.655 -47.0291 273.361 -17.9734C282.529 12.6259 287.801 52.6487 262.77 72.4935C238.975 91.3584 207.671 60.3091 177.385 58.1169C154.345 56.4494 127.72 78.1036 111.607 61.5524C95.3695 44.8744 113.871 18.4968 116.271 -4.65581C119.288 -33.7539 104.009 -69.341 127.045 -87.3737C151.699 -106.674 187.923 -96.3115 216.213 -82.8933Z" fill="#0556F3"/>
<path opacity="0.1" d="M-68.4522 -120.657C-86.1734 -101.905 -114.306 -84.9046 -109.444 -59.5664C-104.646 -34.558 -70.4799 -33.0091 -49.0089 -19.3184C-25.797 -4.51781 -8.50427 29.2989 17.9438 21.6603C44.7387 13.9214 52.3546 -21.2956 54.1934 -49.125C55.5619 -69.8361 36.0219 -82.9871 26.0616 -101.197C13.7153 -123.77 15.7876 -160.226 -9.41223 -165.414C-34.8608 -170.654 -50.606 -139.54 -68.4522 -120.657Z" fill="#0556F3"/>
</svg>
