<svg width="50" height="40" viewBox="0 0 50 40" fill="none" xmlns="http://www.w3.org/2000/svg">
<path d="M39.848 39.136C36.008 39.136 33.176 37.936 31.352 35.536C29.528 33.136 28.616 30.208 28.616 26.752C28.616 24.064 29.288 21.184 30.632 18.112C31.976 14.944 33.944 11.824 36.536 8.75203C39.128 5.68003 42.248 3.04003 45.896 0.832031L49.64 5.87203C45.8 8.56003 42.92 11.248 41 13.936C39.08 16.624 38.024 19.264 37.832 21.856H41.288C44.168 21.856 46.28 22.528 47.624 23.872C48.968 25.216 49.64 26.992 49.64 29.2C49.64 31.984 48.728 34.336 46.904 36.256C45.176 38.176 42.824 39.136 39.848 39.136ZM11.336 39.136C7.496 39.136 4.664 37.936 2.84 35.536C1.016 33.136 0.104004 30.208 0.104004 26.752C0.104004 24.064 0.776004 21.184 2.12 18.112C3.464 14.944 5.432 11.824 8.024 8.75203C10.616 5.68003 13.736 3.04003 17.384 0.832031L21.128 5.87203C17.288 8.56003 14.408 11.248 12.488 13.936C10.568 16.624 9.512 19.264 9.32 21.856H12.776C15.656 21.856 17.768 22.528 19.112 23.872C20.456 25.216 21.128 26.992 21.128 29.2C21.128 31.984 20.216 34.336 18.392 36.256C16.664 38.176 14.312 39.136 11.336 39.136Z" fill="#25265E" fill-opacity="0.4"/>
</svg>
